<svg
  viewBox="0 0 166 30"
  id="logo"
  xmlns="http://www.w3.org/2000/svg"
  width="100%"
  height="100%"
>
  <g fill="none">
    <path
      d="M45.79 20.69a4.67 4.67 0 0 0 1.82-.25c.366-.192.577-.59.53-1a1.19 1.19 0 0 0-.69-1c-.67-.395-1.372-.73-2.1-1-.68-.25-1.348-.533-2-.85a5.837 5.837 0 0 1-1.52-1.05 4.233 4.233 0 0 1-1-1.46 5.416 5.416 0 0 1-.35-2 4.406 4.406 0 0 1 1.73-3.67A7.504 7.504 0 0 1 47 7.1c.97-.002 1.937.088 2.89.27.748.13 1.484.325 2.2.58l-.82 3.64a17.223 17.223 0 0 0-1.77-.5 9.648 9.648 0 0 0-2.15-.22c-1.467 0-2.2.407-2.2 1.22-.004.17.026.34.09.5.087.172.218.317.38.42.244.168.5.315.77.44.327.16.74.333 1.24.52.873.312 1.72.686 2.54 1.12.592.31 1.13.715 1.59 1.2.377.41.658.898.82 1.43.168.592.25 1.205.24 1.82a4.19 4.19 0 0 1-1.82 3.7 9.157 9.157 0 0 1-5.19 1.25c-1.23.025-2.46-.103-3.66-.38a14.73 14.73 0 0 1-2-.63l.78-3.8c.795.315 1.614.562 2.45.74.792.172 1.6.262 2.41.27zm20.4-9.01c-.42-.107-.91-.217-1.47-.33a9.197 9.197 0 0 0-1.82-.17c-.35.005-.702.032-1.05.08-.314.033-.625.09-.93.17V24h-4.68V8.41c.984-.332 1.985-.61 3-.83 1.235-.27 2.496-.4 3.76-.39h.91c.353 0 .717.057 1.09.17.353.053.71.117 1.07.19.31.06.616.152.91.27l-.79 3.86zM75.1 7.1c1.168-.03 2.333.128 3.45.47a5.367 5.367 0 0 1 2.21 1.35c.564.605.97 1.34 1.18 2.14.24.91.358 1.85.35 2.79v9.73c-.667.147-1.597.32-2.79.52a26.81 26.81 0 0 1-4.33.3 13.71 13.71 0 0 1-2.9-.28 6.29 6.29 0 0 1-2.27-.93 4.228 4.228 0 0 1-1.44-1.68 5.794 5.794 0 0 1-.5-2.54c-.027-.854.173-1.7.58-2.45a4.467 4.467 0 0 1 1.55-1.6 7.014 7.014 0 0 1 2.24-.92 12.518 12.518 0 0 1 2.57-.22c.54-.003 1.082.024 1.62.08.388.036.773.103 1.15.2v-.44a2.591 2.591 0 0 0-.72-1.92 3.504 3.504 0 0 0-2.48-.7c-.786 0-1.572.056-2.35.17-.682.095-1.352.26-2 .49l-.6-3.77c.273-.087.607-.177 1-.27.393-.093.853-.18 1.38-.26.48-.073.987-.137 1.52-.19.533-.053 1.06-.077 1.58-.07zm.38 13.69h1.32c.335-.01.67-.04 1-.09v-3.59c-.187-.073-.453-.11-.8-.11a9.285 9.285 0 0 0-1-.06c-.415 0-.83.026-1.24.08a3.247 3.247 0 0 0-1 .3 1.74 1.74 0 0 0-.69.6c-.175.28-.262.61-.25.94a1.6 1.6 0 0 0 .74 1.52 4.07 4.07 0 0 0 1.92.4v.01zM90.63 24c-1.087-2.06-2.173-4.493-3.26-7.3a128.231 128.231 0 0 1-3.13-9.17h5c.207.813.453 1.697.74 2.65.287.953.58 1.917.88 2.89.307.973.61 1.92.91 2.84.3.92.6 1.757.9 2.51a134.404 134.404 0 0 0 1.81-5.35c.307-.973.6-1.937.88-2.89.28-.953.527-1.837.74-2.65h4.8c-.987 3.333-2.03 6.39-3.13 9.17-1.1 2.78-2.187 5.213-3.26 7.3h-3.88zm12.75-15.9a25.82 25.82 0 0 1 3.08-.64 25.258 25.258 0 0 1 4-.3 9.653 9.653 0 0 1 3.5.55c.86.316 1.62.85 2.21 1.55.558.7.955 1.517 1.16 2.39.242 1.01.36 2.043.35 3.08V24H113v-8.71a6.32 6.32 0 0 0-.6-3.2 2.43 2.43 0 0 0-2.23-.94h-1.07l-1 .11V24h-4.68l-.04-15.9zM127 2.76a2.574 2.574 0 0 1-.83 2 3 3 0 0 1-3.92 0 2.574 2.574 0 0 1-.83-2 2.574 2.574 0 0 1 .83-2 3 3 0 0 1 3.92 0c.558.512.86 1.244.83 2zM126.55 24h-4.68V7.53h4.68V24zm8.97-2.43a2.63 2.63 0 0 1-.89 2.15 3.15 3.15 0 0 1-4 0 2.63 2.63 0 0 1-.89-2.15 2.63 2.63 0 0 1 .89-2.15 3.15 3.15 0 0 1 4 0 2.63 2.63 0 0 1 .89 2.15zm13.09-9.89c-.42-.107-.91-.217-1.47-.33a9.197 9.197 0 0 0-1.82-.17c-.35.005-.702.032-1.05.08-.314.033-.625.09-.93.17V24h-4.68V8.41c.984-.332 1.985-.61 3-.83 1.25-.272 2.53-.403 3.81-.39h.91c.353 0 .71.043 1.07.13.353.053.71.117 1.07.19.31.06.616.152.91.27l-.82 3.9zM166 23.48a25.82 25.82 0 0 1-3.08.64c-1.323.206-2.66.306-4 .3a9.395 9.395 0 0 1-3.5-.56 5.322 5.322 0 0 1-2.21-1.59 6.186 6.186 0 0 1-1.16-2.43 13.134 13.134 0 0 1-.35-3.11v-9.2h4.68v8.63a6.693 6.693 0 0 0 .6 3.27c.5.72 1.36 1.105 2.23 1h1.07c.38 0 .713-.037 1-.11V7.53H166v15.95z"
      fill="#3B3E44"
    />
    <path
      d="M10.36 18.61a5.7 5.7 0 0 1 7.81-7.82l6.14-6.14C18.63-.017 10.336.39 5.14 5.59c-5.194 5.2-5.593 13.495-.92 19.17l6.14-6.15z"
      fill="#03A9F4"
    />
    <path
      d="M26.33 6.68l-6.14 6.14a5.71 5.71 0 0 1-7.81 7.81l-6.14 6.15c5.68 4.645 13.954 4.23 19.14-.958a14.28 14.28 0 0 0 .95-19.142z"
      fill="#0DD149"
    />
  </g>
</svg>
